#!OML:ASF F:\VICON\USERDATA\INSTALL\rory3\rory3.ASF
:FULLY-SPECIFIED
:DEGREES
4153
root -1.55995 16.4218 -3.20216 10.3804 -45.6997 -1.23049
lowerback 11.1906 3.19177 -2.61089
upperback 1.33051 3.94958 1.15306
thorax -5.13342 1.99717 2.05951
lowerneck -22.9816 -3.84142 -11.3764
upperneck 20.3249 -3.65932 8.89148
head 10.7187 -1.48695 4.53875
rclavicle -1.69961e-014 3.57812e-015
rhumerus -10.956 7.05164 -79.7024
rradius 112.452
rwrist -13.3992
rhand -12.7494 27.327
rfingers 7.12502
rthumb 13.3348 -2.22633
lclavicle -1.69961e-014 3.57812e-015
lhumerus -15.1111 -8.45037 84.3124
lradius 124.617
lwrist 11.1187
lhand -13.9741 10.2579
lfingers 7.12502
lthumb 12.1541 39.8848
rfemur 2.23269 -5.06179 13.211
rtibia 36.4276
rfoot -27.458 3.53801
rtoes -13.9907
lfemur -47.2722 3.55825 -10.5085
ltibia 49.861
lfoot -5.37056 -3.14532
ltoes -24.2798
4154
root -1.56301 16.5094 -3.3101 10.6592 -44.9326 -1.38652
lowerback 11.1915 3.12224 -2.43949
upperback 1.37495 3.87988 1.19256
thorax -5.07439 1.95862 2.01744
lowerneck -22.7605 -4.05334 -11.5405
upperneck 20.3955 -3.98282 9.09412
head 10.7508 -1.62894 4.59144
rclavicle 8.65707e-014 -2.0276e-014
rhumerus -12.0576 6.68045 -79.0562
rradius 111.172
rwrist -14.8909
rhand -12.5442 27.1518
rfingers 7.12502
rthumb 13.5325 -2.38852
lclavicle 8.65707e-014 -2.0276e-014
lhumerus -15.0541 -9.47238 84.6734
lradius 123.644
lwrist 10.8364
lhand -14.3616 10.7454
lfingers 7.12502
lthumb 11.7804 40.3941
rfemur 2.21039 -5.88533 13.7519
rtibia 35.7491
rfoot -26.544 4.04036
rtoes -12.4473
lfemur -46.9055 3.20015 -10.0395
ltibia 47.9647
lfoot -3.91971 -3.81188
ltoes -23.864
4155
root -1.57078 16.6227 -3.4061 10.8909 -44.2324 -1.51941
lowerback 11.156 3.08203 -2.18131
upperback 1.43382 3.85488 1.13432
thorax -4.97011 1.93906 1.81969
lowerneck -22.6129 -4.25275 -11.5603
upperneck 20.5901 -4.33503 9.27773
head 10.8428 -1.77471 4.61195
rclavicle -8.65707e-014 8.74653e-015
rhumerus -13.1797 6.31627 -78.6166
rradius 109.53
rwrist -16.1312
rhand -12.4285 26.9808
rfingers 7.12502
rthumb 13.6441 -2.55197
lclavicle -8.65707e-014 8.74653e-015
lhumerus -15.2143 -10.4575 85.0202
lradius 122.715
lwrist 11.1182
lhand -14.6232 10.7813
lfingers 7.12502
lthumb 11.5281 40.4443
rfemur 2.04413 -6.54132 14.2442
rtibia 35.1716
rfoot -25.2251 3.97592
rtoes -11.1293
lfemur -46.2996 2.60802 -9.43074
ltibia 45.757
lfoot -2.20957 -4.31416
ltoes -22.2038
4156
root -1.5877 16.7505 -3.49303 11.1066 -43.6902 -1.54093
lowerback 10.945 3.06319 -2.05007
upperback 1.4591 3.84518 1.03445
thorax -4.8102 1.93016 1.65503
lowerneck -22.2651 -4.37452 -11.6315
upperneck 20.6824 -4.58863 9.4977
head 10.851 -1.87898 4.66771
rclavicle -1.04561e-013 7.95139e-016
rhumerus -14.3103 6.06986 -78.2605
rradius 107.598
rwrist -16.9913
rhand -12.288 26.9723
rfingers 7.12502
rthumb 13.7795 -2.55138
lclavicle -1.04561e-013 7.95139e-016
lhumerus -15.5801 -11.2133 85.2944
lradius 121.683
lwrist 11.1214
lhand -14.597 10.5528
lfingers 7.12502
lthumb 11.5534 40.2143
rfemur 1.72374 -7.11388 14.5405
rtibia 34.7488
rfoot -23.2752 4.2272
rtoes -7.43422
lfemur -45.5624 1.97958 -8.84992
ltibia 43.2986
lfoot -0.347185 -4.56455
ltoes -19.6887
4157
root -1.60783 16.8887 -3.57408 11.3547 -43.3619 -1.61817
lowerback 10.7438 3.08978 -1.95969
upperback 1.42841 3.89088 0.929474
thorax -4.71922 1.95067 1.49749
lowerneck -21.7622 -4.43395 -11.7034
upperneck 20.7595 -4.77441 9.72219
head 10.8167 -1.9562 4.73617
rclavicle -6.2816e-014 1.98785e-016
rhumerus -15.4 5.97019 -77.9652
rradius 105.355
rwrist -17.2436
rhand -12.2256 26.9052
rfingers 7.12502
rthumb 13.8396 -2.61438
lclavicle -6.2816e-014 1.98785e-016
lhumerus -16.1059 -11.7294 85.4017
lradius 120.496
lwrist 10.7399
lhand -14.2352 9.82862
lfingers 7.12502
lthumb 11.9023 39.4703
rfemur 1.26584 -7.59076 14.7629
rtibia 34.6008
rfoot -20.8697 4.49193
rtoes -5.54664
lfemur -44.6208 1.48572 -8.31517
ltibia 40.7124
lfoot 1.31816 -4.535
ltoes -19.1184
4158
root -1.628 17.0332 -3.64812 11.7093 -43.2647 -1.86656
lowerback 10.505 3.15151 -1.79466
upperback 1.44734 3.99159 0.82986
thorax -4.55271 1.99616 1.29987
lowerneck -21.5283 -4.46836 -11.5952
upperneck 20.9547 -4.9076 9.74051
head 10.8588 -2.01396 4.70899
rclavicle 1.67973e-014 -3.85642e-014
rhumerus -16.2541 5.98744 -77.771
rradius 102.714
rwrist -16.6254
rhand -12.3239 26.8977
rfingers 7.12502
rthumb 13.7448 -2.62828
lclavicle 1.67973e-014 -3.85642e-014
lhumerus -16.7409 -12.5218 85.5012
lradius 119.669
lwrist 11.3417
lhand -15.0956 10.4297
lfingers 7.12502
lthumb 11.0725 40.1177
rfemur 0.589256 -7.88945 14.984
rtibia 34.8019
rfoot -18.1409 4.75084
rtoes -3.61829
lfemur -43.4732 1.01832 -7.65418
ltibia 38.1627
lfoot 2.62048 -3.97652
ltoes -19.6428
4159
root -1.64423 17.1732 -3.71445 11.9358 -43.0922 -2.05782
lowerback 10.2591 3.15095 -1.58359
upperback 1.57396 4.01443 0.767736
thorax -4.26574 2.00145 1.13192
lowerneck -21.436 -4.49016 -11.5416
upperneck 21.1248 -4.9592 9.66273
head 10.9068 -2.04626 4.6673
rclavicle -6.36111e-015 1.33186e-014
rhumerus -16.8939 6.14558 -77.5045
rradius 99.8332
rwrist -15.3871
rhand -12.5112 27.0456
rfingers 7.12502
rthumb 13.5643 -2.49255
lclavicle -6.36111e-015 1.33186e-014
lhumerus -17.3261 -12.8193 85.6378
lradius 118.704
lwrist 11.7813
lhand -15.0885 10.2761
lfingers 7.12502
lthumb 11.0794 39.9637
rfemur -0.221213 -8.3632 15.0422
rtibia 35.3641
rfoot -15.0766 4.95577
rtoes 0.655158
lfemur -42.2073 0.14772 -6.94772
ltibia 35.8621
lfoot 3.23687 -2.88366
ltoes -21.0061
4160
root -1.65047 17.3072 -3.77359 11.9542 -42.805 -1.98288
lowerback 10.106 3.03843 -1.46086
upperback 1.64394 3.87864 0.72728
thorax -4.09202 1.93137 1.05123
lowerneck -21.172 -4.43391 -11.6066
upperneck 21.2256 -4.86884 9.55725
head 10.8816 -2.0308 4.65625
rclavicle 5.96354e-016 1.37161e-014
rhumerus -17.4727 6.55301 -77.2051
rradius 96.7928
rwrist -13.8139
rhand -12.7161 27.2369
rfingers 7.12502
rthumb 13.3668 -2.31433
lclavicle 5.96354e-016 1.37161e-014
lhumerus -18.1619 -12.5366 85.9195
lradius 117.67
lwrist 12.2131
lhand -14.5983 9.43391
lfingers 7.12502
lthumb 11.5522 39.0955
rfemur -1.22653 -9.10399 14.7722
rtibia 36.2662
rfoot -11.5218 4.90329
rtoes 5.022
lfemur -41.0117 -1.10288 -6.47391
ltibia 34.029
lfoot 2.91298 -1.72396
ltoes -23.3474
